<svg width="97" height="42" viewBox="0 0 97 42" fill="none" xmlns="http://www.w3.org/2000/svg">
<rect width="97" height="42" rx="1" fill="#F9FAFB"/>
<path d="M52.98 17.81H47.632V20.792H51.804V21.842H47.632V26H46.512V16.76H52.98V17.81ZM55.4069 17.656C55.1549 17.656 54.9496 17.5813 54.7909 17.432C54.6416 17.2733 54.5669 17.068 54.5669 16.816C54.5669 16.564 54.6416 16.3633 54.7909 16.214C54.9496 16.0553 55.1549 15.976 55.4069 15.976C55.6589 15.976 55.8596 16.0553 56.0089 16.214C56.1676 16.3633 56.2469 16.564 56.2469 16.816C56.2469 17.068 56.1676 17.2733 56.0089 17.432C55.8596 17.5813 55.6589 17.656 55.4069 17.656ZM55.9669 19V26H54.8469V19H55.9669ZM59.6297 15.78V24.222C59.6297 24.5767 59.695 24.824 59.8257 24.964C59.9563 25.0947 60.1663 25.16 60.4557 25.16C60.6423 25.16 60.7963 25.146 60.9177 25.118C61.039 25.09 61.2023 25.0387 61.4077 24.964L61.2257 25.944C60.9177 26.0747 60.5723 26.14 60.1897 26.14C59.0697 26.14 58.5097 25.5147 58.5097 24.264V15.78H59.6297ZM66.7715 19V19.966H64.2235V24.068C64.2235 24.4133 64.3215 24.67 64.5175 24.838C64.7135 25.006 64.9655 25.09 65.2735 25.09C65.5442 25.09 65.7775 25.0433 65.9735 24.95C66.1695 24.8567 66.3469 24.7307 66.5055 24.572L66.8975 25.51C66.6829 25.706 66.4262 25.86 66.1275 25.972C65.8382 26.084 65.5022 26.14 65.1195 26.14C64.7649 26.14 64.4335 26.0793 64.1255 25.958C63.8175 25.8273 63.5702 25.6267 63.3835 25.356C63.2062 25.076 63.1129 24.712 63.1035 24.264V19.966H61.7035V19H63.1035V17.32L64.2235 17.012V19H66.7715ZM71.3628 26.14C70.7001 26.14 70.1074 25.9953 69.5848 25.706C69.0714 25.4167 68.6701 25.0013 68.3808 24.46C68.0914 23.9093 67.9468 23.256 67.9468 22.5C67.9468 21.744 68.0914 21.0953 68.3808 20.554C68.6701 20.0033 69.0668 19.5833 69.5708 19.294C70.0748 19.0047 70.6488 18.86 71.2928 18.86C71.9461 18.86 72.5014 19 72.9588 19.28C73.4254 19.56 73.7801 19.9427 74.0228 20.428C74.2654 20.904 74.3868 21.4407 74.3868 22.038C74.3868 22.1967 74.3821 22.3413 74.3728 22.472C74.3634 22.6027 74.3494 22.7193 74.3308 22.822H69.0528C69.1088 23.5593 69.3374 24.1333 69.7388 24.544C70.1401 24.9547 70.6721 25.16 71.3348 25.16C71.8481 25.16 72.2634 25.062 72.5808 24.866C72.9074 24.67 73.1688 24.404 73.3648 24.068L74.2468 24.586C73.9854 25.062 73.6074 25.44 73.1128 25.72C72.6274 26 72.0441 26.14 71.3628 26.14ZM71.2648 19.84C70.6768 19.84 70.1914 20.0173 69.8088 20.372C69.4354 20.7173 69.1974 21.2027 69.0948 21.828H73.2668C73.2388 21.1933 73.0428 20.7033 72.6788 20.358C72.3148 20.0127 71.8434 19.84 71.2648 19.84ZM76.5168 26V19H77.4268L77.5808 20.148C77.9728 19.2893 78.7195 18.86 79.8208 18.86C79.9422 18.86 80.0728 18.8693 80.2128 18.888C80.3622 18.9067 80.4882 18.944 80.5908 19L80.3948 20.022C80.2922 19.9847 80.1802 19.9567 80.0588 19.938C79.9375 19.9193 79.7648 19.91 79.5408 19.91C79.2515 19.91 78.9575 19.994 78.6588 20.162C78.3695 20.33 78.1268 20.5867 77.9308 20.932C77.7348 21.268 77.6368 21.6973 77.6368 22.22V26H76.5168ZM84.4509 26.14C83.7696 26.14 83.1396 25.9953 82.5609 25.706C81.9916 25.4167 81.5529 25.006 81.2449 24.474L82.1969 23.788C82.4022 24.2173 82.7009 24.5533 83.0929 24.796C83.4942 25.0387 83.9749 25.16 84.5349 25.16C85.0296 25.16 85.4169 25.0667 85.6969 24.88C85.9769 24.684 86.1169 24.432 86.1169 24.124C86.1169 23.928 86.0516 23.7507 85.9209 23.592C85.7996 23.424 85.5616 23.3027 85.2069 23.228L83.5269 22.878C82.8456 22.738 82.3556 22.5047 82.0569 22.178C81.7676 21.8513 81.6229 21.4453 81.6229 20.96C81.6229 20.5773 81.7302 20.2273 81.9449 19.91C82.1689 19.5927 82.4816 19.3407 82.8829 19.154C83.2936 18.958 83.7742 18.86 84.3249 18.86C85.0156 18.86 85.5989 18.9953 86.0749 19.266C86.5509 19.5367 86.9056 19.9193 87.1389 20.414L86.2009 21.03C86.0422 20.6193 85.7856 20.3207 85.4309 20.134C85.0762 19.938 84.7076 19.84 84.3249 19.84C83.8209 19.84 83.4289 19.9427 83.1489 20.148C82.8689 20.3533 82.7289 20.61 82.7289 20.918C82.7289 21.1233 82.7989 21.3147 82.9389 21.492C83.0789 21.66 83.3402 21.7813 83.7229 21.856L85.4729 22.22C86.1262 22.3507 86.5836 22.5653 86.8449 22.864C87.1062 23.1627 87.2369 23.5267 87.2369 23.956C87.2369 24.6187 86.9802 25.1507 86.4669 25.552C85.9536 25.944 85.2816 26.14 84.4509 26.14Z" fill="#4B5563"/>
<path d="M11 30V23" stroke="#4B5563" stroke-width="1.25" stroke-linecap="round" stroke-linejoin="round"/>
<path d="M11 19V12" stroke="#4B5563" stroke-width="1.25" stroke-linecap="round" stroke-linejoin="round"/>
<path d="M19 30V21" stroke="#4B5563" stroke-width="1.25" stroke-linecap="round" stroke-linejoin="round"/>
<path d="M19 17V12" stroke="#4B5563" stroke-width="1.25" stroke-linecap="round" stroke-linejoin="round"/>
<path d="M27 30V25" stroke="#4B5563" stroke-width="1.25" stroke-linecap="round" stroke-linejoin="round"/>
<path d="M27 21V12" stroke="#4B5563" stroke-width="1.25" stroke-linecap="round" stroke-linejoin="round"/>
<path d="M8 23H14" stroke="#4B5563" stroke-width="1.25" stroke-linecap="round" stroke-linejoin="round"/>
<path d="M16 17H22" stroke="#4B5563" stroke-width="1.25" stroke-linecap="round" stroke-linejoin="round"/>
<path d="M24 25H30" stroke="#4B5563" stroke-width="1.25" stroke-linecap="round" stroke-linejoin="round"/>
</svg>
